<svg width="61" height="60" viewBox="0 0 61 60" fill="none" xmlns="http://www.w3.org/2000/svg">
<path d="M9.42359 53.3793L4.73375 0.778564H56.2663L51.5713 53.3714L30.4686 59.2214L9.42359 53.3793Z" fill="#E44D26"/>
<path d="M30.5 54.75L47.5522 50.0222L51.5642 5.07935H30.5V54.75Z" fill="#F16529"/>
<path d="M30.5 24.5883H21.9631L21.3734 17.9817H30.5V11.5308H14.323L14.4777 13.2614L16.063 31.0397H30.5V24.5883ZM30.5 41.3428L30.4714 41.3508L23.2869 39.4101L22.828 34.2656H16.3512L17.255 44.3948L30.4705 48.0633L30.5 48.0553V41.3428Z" fill="#EBEBEB"/>
<path d="M30.4775 24.5883V31.0397H38.4214L37.6728 39.4064L30.4775 41.3484V48.0605L43.7033 44.3948L43.8003 43.305L45.3162 26.3208L45.4733 24.5883H43.7352H30.4775ZM30.4775 11.5308V17.9817H46.0606L46.19 16.5323L46.4844 13.2614L46.6386 11.5308H30.4775Z" fill="white"/>
</svg>
