<svg width="61" height="60" viewBox="0 0 61 60" fill="none" xmlns="http://www.w3.org/2000/svg">
<path d="M1.15997 0.659912H59.84V59.3404H1.15997V0.659912Z" fill="#F0DB4F"/>
<path d="M55.0377 45.345C54.6078 42.668 52.8622 40.4194 47.6914 38.3227C45.8952 37.4972 43.8927 36.9061 43.2959 35.5449C43.0841 34.7527 43.0559 34.3064 43.19 33.8269C43.5749 32.2707 45.4325 31.7855 46.9049 32.2318C47.8531 32.5496 48.7508 33.2803 49.2922 34.4461C51.8244 32.8064 51.8192 32.8172 53.5874 31.6903C52.94 30.6868 52.5945 30.2236 52.1708 29.7943C50.6478 28.0932 48.5727 27.2171 45.2539 27.2841L43.5252 27.5077C41.8686 27.9263 40.2899 28.7958 39.3641 29.9616C36.5863 33.1135 37.3785 38.6297 40.7586 40.8999C44.0886 43.3993 48.9805 43.9678 49.6053 46.305C50.2133 49.1663 47.5025 50.0925 44.8081 49.7635C42.8225 49.3505 41.7181 48.3413 40.5242 46.5061C38.3267 47.7778 38.3267 47.7778 36.0674 49.0772C36.6031 50.2486 37.1661 50.7788 38.0642 51.7936C42.3149 56.1052 52.9517 55.8933 54.8595 49.3674C54.9369 49.1433 55.4506 47.6489 55.0377 45.345ZM33.0603 27.6296H27.5717L27.5492 41.8196C27.5492 44.8374 27.7053 47.6039 27.2145 48.4519C26.4116 50.1197 24.3308 49.913 23.3825 49.5896C22.4174 49.1152 21.9266 48.4407 21.358 47.4872C21.2019 47.2135 21.0847 47.0016 21.0453 46.9852L16.5828 49.718C17.3249 51.241 18.418 52.5628 19.8181 53.4216C21.9097 54.6769 24.7208 55.0618 27.6608 54.3868C29.5742 53.8294 31.2252 52.6749 32.0895 50.9175C33.3392 48.6136 33.0711 45.825 33.0599 42.7407C33.088 37.7086 33.0603 32.6775 33.0603 27.6296Z" fill="#323330"/>
</svg>
