<svg width="60" height="60" viewBox="0 0 60 60" fill="none" xmlns="http://www.w3.org/2000/svg">
<g clip-path="url(#clip0_12_248)">
<path d="M21.3281 60.4688C26.9062 60.4688 31.4062 55.9688 31.4062 50.3906V40.3125H21.3281C15.75 40.3125 11.25 44.8125 11.25 50.3906C11.25 55.9688 15.75 60.4688 21.3281 60.4688Z" fill="#0ACF83"/>
<path d="M11.25 30.2344C11.25 24.6562 15.75 20.1562 21.3281 20.1562H31.4062V40.3125H21.3281C15.75 40.3125 11.25 35.8125 11.25 30.2344Z" fill="#A259FF"/>
<path d="M11.25 10.0781C11.25 4.5 15.75 0 21.3281 0H31.4062V20.1562H21.3281C15.75 20.1562 11.25 15.6562 11.25 10.0781Z" fill="#F24E1E"/>
<path d="M31.4062 0H41.4844C47.0625 0 51.5625 4.5 51.5625 10.0781C51.5625 15.6562 47.0625 20.1562 41.4844 20.1562H31.4062V0Z" fill="#FF7262"/>
<path d="M51.5625 30.2344C51.5625 35.8125 47.0625 40.3125 41.4844 40.3125C35.9062 40.3125 31.4062 35.8125 31.4062 30.2344C31.4062 24.6562 35.9062 20.1562 41.4844 20.1562C47.0625 20.1562 51.5625 24.6562 51.5625 30.2344Z" fill="#1ABCFE"/>
</g>
<defs>
<clipPath id="clip0_12_248">
<rect width="60" height="60" fill="white"/>
</clipPath>
</defs>
</svg>
