<svg viewBox="0 0 100 100" width="32" height="32" fill="#ffffff"><path d="M78.849 7.747h19.742v56.407H78.849Z"></path><path d="M60.69 52.985q-5.01-5.594-13.944-6.278c5.3-1.443 9.15-3.554 11.585-6.374q3.635-4.175 3.626-11.316a20.248 20.248 0 0 0-2.42-9.971 17.987 17.987 0 0 0-7.079-6.861 30.125 30.125 0 0 0-9.663-3.151c-3.765-.6-10.353-.9-19.807-.9H0v83.73h23.684q14.272 0 20.571-.969a33.424 33.424 0 0 0 10.555-3.283 19.335 19.335 0 0 0 8.083-7.89 23.914 23.914 0 0 0 2.825-11.818c-.001-6.21-1.675-11.201-5.028-14.919ZM21.225 26.696h4.907q8.507 0 11.447 1.912c1.94 1.279 2.93 3.487 2.93 6.633 0 3.027-1.053 5.158-3.136 6.409-2.11 1.226-5.956 1.848-11.585 1.848h-4.563ZM40.69 74.713c-2.233 1.37-6.08 2.042-11.477 2.042h-7.986V58.464h8.331c5.543 0 9.375.7 11.413 2.088 2.071 1.392 3.09 3.849 3.09 7.378-.001 3.154-1.119 5.421-3.371 6.783Z"></path><path d="M88.722 69.689A11.281 11.281 0 1 0 100 80.968a11.276 11.276 0 0 0-11.278-11.279Z"></path></svg>
