<svg width="61" height="60" viewBox="0 0 61 60" fill="none" xmlns="http://www.w3.org/2000/svg">
<path d="M9.31907 53.4952L4.60626 0.633789H56.3938L51.6763 53.4872L30.4686 59.3668L9.31907 53.4952Z" fill="#1572B6"/>
<path d="M30.5005 54.8728L47.6375 50.1215L51.6692 4.95557H30.5005V54.8728Z" fill="#33A9DC"/>
<path d="M30.5005 24.1073H39.0795L39.672 17.4684H30.5005V10.9851H46.7576L46.602 12.7246L45.0083 30.5906H30.5005V24.1073Z" fill="white"/>
<path d="M30.5389 40.9449L30.5103 40.9533L23.2902 39.0038L22.8284 33.833H16.3213L17.2292 44.0129L30.5094 47.6986L30.5389 47.6902V40.9449Z" fill="#EBEBEB"/>
<path d="M38.5283 30.3164L37.7474 38.9986L30.5164 40.9505V47.6958L43.8074 44.0123L43.9049 42.9169L45.0327 30.3164H38.5283Z" fill="white"/>
<path d="M30.5225 10.9851V17.4684H14.8625L14.7327 16.0115L14.4374 12.7246L14.2822 10.9851H30.5225ZM30.5005 24.1082V30.5915H23.3713L23.2414 29.1346L22.9456 25.8478L22.7909 24.1082H30.5005Z" fill="#EBEBEB"/>
</svg>
