<svg width="60" height="60" viewBox="0 0 60 60" fill="none" xmlns="http://www.w3.org/2000/svg">
<g clip-path="url(#clip0_12_256)">
<path d="M58.4705 27.3646L32.6349 1.52992C31.148 0.0421094 28.7349 0.0421094 27.2456 1.52992L21.8813 6.89523L28.6866 13.7005C30.2686 13.1666 32.0817 13.5248 33.3422 14.7852C34.6092 16.0537 34.9645 17.8823 34.4175 19.4695L40.9763 26.0287C42.563 25.4816 44.3944 25.8351 45.6609 27.1045C47.4328 28.8749 47.4328 31.7451 45.6609 33.5165C45.2399 33.9378 44.7399 34.2719 44.1897 34.5C43.6394 34.728 43.0496 34.8453 42.454 34.8453C41.8584 34.8453 41.2686 34.728 40.7183 34.5C40.1681 34.2719 39.6681 33.9378 39.247 33.5165C38.6144 32.8835 38.1832 32.0775 38.0076 31.1999C37.832 30.3223 37.9199 29.4125 38.2603 28.5848L32.1441 22.4685L32.1431 38.5659C32.5869 38.7844 32.9921 39.0738 33.3427 39.4227C35.1136 41.1932 35.1136 44.0624 33.3427 45.8366C31.5713 47.6071 28.7002 47.6071 26.9306 45.8366C25.1597 44.0629 25.1597 41.1937 26.9306 39.4227C27.3549 38.9978 27.8596 38.6616 28.4152 38.4337V22.1873C27.8591 21.96 27.3543 21.6235 26.9306 21.1977C25.5891 19.8571 25.2661 17.8884 25.9542 16.2402L19.245 9.53102L1.53001 27.2451C0.815311 27.96 0.413818 28.9295 0.413818 29.9404C0.413818 30.9513 0.815311 31.9208 1.53001 32.6357L27.3661 58.4704C28.8539 59.9582 31.2661 59.9582 32.7563 58.4704L58.4709 32.7557C59.1855 32.0406 59.5868 31.071 59.5867 30.0601C59.5867 29.0491 59.1852 28.0796 58.4705 27.3646Z" fill="#F34F29"/>
</g>
<defs>
<clipPath id="clip0_12_256">
<rect width="60" height="60" fill="white"/>
</clipPath>
</defs>
</svg>
