<svg width="60" height="60" viewBox="0 0 60 60" fill="none" xmlns="http://www.w3.org/2000/svg">
<path fill-rule="evenodd" clip-rule="evenodd" d="M51.4134 6.90802C45.6919 4.08474 39.8316 3.79739 33.8316 5.91849C28.3102 7.87036 23.9058 11.363 20.6316 16.1199C15.0914 24.1693 11.0672 32.9522 8.81204 42.4932C7.65704 47.3761 6.90892 52.5554 7.11001 57.5982C7.12642 58.0074 7.18736 58.125 7.22767 59.0625H35.5242C35.4431 58.125 35.3897 58.3988 35.3194 58.2202C33.8242 54.3895 32.6593 50.4379 31.8375 46.4086C30.6666 40.666 30.0534 34.8169 31.2628 29.0213C32.9555 20.9058 37.5816 15.0502 45.3802 12.0136C49.7977 10.2947 53.9906 10.7836 57.668 14.0115C57.7017 14.041 57.7711 14.0232 57.8611 14.0377L59.0634 12.2175C56.7478 10.013 54.2034 8.28521 51.4134 6.90802ZM1.56376 44.2472C1.34814 46.0861 1.14658 47.8079 0.935638 49.6149L6.15376 50.2411L7.10954 44.6663L1.56376 44.2472ZM11.806 28.2225L6.89767 26.3021L5.31142 30.8054L10.3135 32.4085C10.8197 30.9877 11.296 29.6513 11.806 28.2225ZM34.9711 53.3752C36.6469 53.4999 38.326 53.5857 40.1756 53.6935C39.5039 52.2971 38.9072 51.0343 38.2824 49.7865C38.2139 49.651 37.9828 49.5202 37.8258 49.5179C36.4041 49.4972 34.9814 49.5061 33.4706 49.5061C33.811 50.738 34.1067 51.8747 34.4531 52.995C34.5052 53.1643 34.7845 53.3616 34.9711 53.3752ZM20.1249 14.5796L16.396 12.1102L13.4152 15.4407L17.2486 18.0169L20.1249 14.5796ZM32.0002 39.5963C31.9941 39.7468 32.1295 39.9863 32.2617 40.0458C33.6047 40.6496 34.9617 41.2247 36.4392 41.8613C36.3778 40.6932 36.3366 39.7168 36.2667 38.7422C36.2541 38.5669 36.1716 38.3147 36.0417 38.2425C34.8084 37.5601 33.5578 36.908 32.1905 36.1824C32.1159 37.4316 32.04 38.513 32.0002 39.5963ZM30.8953 5.76567L28.3425 2.86833L24.8274 4.69552L27.3844 7.80989L30.8953 5.76567ZM32.4961 28.8169C32.4197 28.9922 32.5205 29.364 32.6709 29.4994C33.6905 30.4191 34.7447 31.2994 35.9175 32.303C36.1861 31.178 36.4392 30.1754 36.6539 29.1657C36.6919 28.9861 36.6389 28.6894 36.5142 28.5891C35.602 27.8536 34.6603 27.1533 33.6844 26.409C33.2555 27.2597 32.8397 28.0229 32.4961 28.8169ZM38.332 4.24317C39.6352 4.27833 40.9397 4.26286 42.316 4.26286C42.1786 3.30474 42.113 2.57864 41.9494 1.87599C41.9006 1.66692 41.5861 1.38849 41.3738 1.37067C40.0674 1.26474 38.7558 1.22396 37.3186 1.15552C37.5103 2.12255 37.6566 2.97474 37.8633 3.81239C37.9069 3.99005 38.1666 4.23849 38.332 4.24317ZM39.9188 20.9658C39.9853 20.8411 40.0022 20.6147 39.9324 20.506C39.292 19.5043 38.6269 18.518 37.9383 17.4802L35.707 19.5296L38.7924 22.9486C39.2067 22.2272 39.5775 21.6043 39.9188 20.9658ZM42.3258 14.1563L43.6585 16.6318C45.7439 15.489 45.9436 15.0755 45.2053 13.4283L42.3258 14.1563ZM52.3041 6.52833C53.1717 7.06364 54.0881 7.51974 55.0191 8.0213L55.6425 7.05099C54.5072 6.22083 53.4113 5.41786 52.1677 4.50755C52.1189 5.02505 52.0463 5.38646 52.065 5.74364C52.08 6.01599 52.1255 6.41864 52.3041 6.52833ZM51.0938 14.3654C52.0313 14.4671 53.4375 14.5641 54.375 14.6668V13.3927C53.4375 13.1874 52.0313 12.984 51.0938 12.7725V14.3654Z" fill="#CC0000"/>
</svg>
